<mxfile host="app.diagrams.net" modified="2021-07-26T06:48:37.217Z" agent="5.0 (Windows NT 10.0; Win64; x64) AppleWebKit/537.36 (KHTML, like Gecko) Chrome/91.0.4472.164 Safari/537.36" etag="fpXrZxzxPk1qfYK8WePn" version="14.9.2" type="github">
  <diagram id="C5RBs43oDa-KdzZeNtuy" name="Page-1">
    <mxGraphModel dx="782" dy="436" grid="1" gridSize="10" guides="1" tooltips="1" connect="1" arrows="1" fold="1" page="1" pageScale="1" pageWidth="827" pageHeight="1169" math="0" shadow="0">
      <root>
        <mxCell id="WIyWlLk6GJQsqaUBKTNV-0" />
        <mxCell id="WIyWlLk6GJQsqaUBKTNV-1" parent="WIyWlLk6GJQsqaUBKTNV-0" />
        <mxCell id="GBPlAGdHlxaaOZqkIV1C-3" style="edgeStyle=orthogonalEdgeStyle;rounded=0;orthogonalLoop=1;jettySize=auto;html=1;exitX=0.5;exitY=1;exitDx=0;exitDy=0;entryX=0.5;entryY=0;entryDx=0;entryDy=0;" parent="WIyWlLk6GJQsqaUBKTNV-1" source="GBPlAGdHlxaaOZqkIV1C-0" target="GBPlAGdHlxaaOZqkIV1C-1" edge="1">
          <mxGeometry relative="1" as="geometry" />
        </mxCell>
        <mxCell id="GBPlAGdHlxaaOZqkIV1C-0" value="Power on" style="rounded=1;whiteSpace=wrap;html=1;" parent="WIyWlLk6GJQsqaUBKTNV-1" vertex="1">
          <mxGeometry x="560" y="60" width="200" height="40" as="geometry" />
        </mxCell>
        <mxCell id="gTSIh67lG50MC-aRm6O5-2" style="edgeStyle=orthogonalEdgeStyle;rounded=0;orthogonalLoop=1;jettySize=auto;html=1;exitX=0.5;exitY=1;exitDx=0;exitDy=0;entryX=0.5;entryY=0;entryDx=0;entryDy=0;" parent="WIyWlLk6GJQsqaUBKTNV-1" source="GBPlAGdHlxaaOZqkIV1C-1" target="GBPlAGdHlxaaOZqkIV1C-8" edge="1">
          <mxGeometry relative="1" as="geometry" />
        </mxCell>
        <mxCell id="GBPlAGdHlxaaOZqkIV1C-1" value="UBoot" style="rounded=1;whiteSpace=wrap;html=1;" parent="WIyWlLk6GJQsqaUBKTNV-1" vertex="1">
          <mxGeometry x="560" y="180" width="200" height="30" as="geometry" />
        </mxCell>
        <mxCell id="GBPlAGdHlxaaOZqkIV1C-12" style="edgeStyle=orthogonalEdgeStyle;rounded=0;orthogonalLoop=1;jettySize=auto;html=1;exitX=0.5;exitY=1;exitDx=0;exitDy=0;entryX=0.5;entryY=0;entryDx=0;entryDy=0;" parent="WIyWlLk6GJQsqaUBKTNV-1" source="GBPlAGdHlxaaOZqkIV1C-8" target="GBPlAGdHlxaaOZqkIV1C-10" edge="1">
          <mxGeometry relative="1" as="geometry" />
        </mxCell>
        <mxCell id="GBPlAGdHlxaaOZqkIV1C-8" value="Kernel boot" style="rounded=1;whiteSpace=wrap;html=1;" parent="WIyWlLk6GJQsqaUBKTNV-1" vertex="1">
          <mxGeometry x="565" y="290" width="190" height="40" as="geometry" />
        </mxCell>
        <mxCell id="GBPlAGdHlxaaOZqkIV1C-44" style="edgeStyle=orthogonalEdgeStyle;rounded=0;orthogonalLoop=1;jettySize=auto;html=1;exitX=0.5;exitY=1;exitDx=0;exitDy=0;entryX=0.5;entryY=0;entryDx=0;entryDy=0;" parent="WIyWlLk6GJQsqaUBKTNV-1" source="GBPlAGdHlxaaOZqkIV1C-10" target="GBPlAGdHlxaaOZqkIV1C-41" edge="1">
          <mxGeometry relative="1" as="geometry" />
        </mxCell>
        <mxCell id="GBPlAGdHlxaaOZqkIV1C-10" value="INIT" style="rounded=1;whiteSpace=wrap;html=1;" parent="WIyWlLk6GJQsqaUBKTNV-1" vertex="1">
          <mxGeometry x="560" y="430" width="200" height="40" as="geometry" />
        </mxCell>
        <mxCell id="GBPlAGdHlxaaOZqkIV1C-14" value="systemd" style="rounded=0;whiteSpace=wrap;html=1;" parent="WIyWlLk6GJQsqaUBKTNV-1" vertex="1">
          <mxGeometry x="380" y="432.5" width="100" height="35" as="geometry" />
        </mxCell>
        <mxCell id="MAqhaq30l3_6akZG-m3e-5" style="edgeStyle=orthogonalEdgeStyle;rounded=0;orthogonalLoop=1;jettySize=auto;html=1;entryX=0.5;entryY=0;entryDx=0;entryDy=0;" edge="1" parent="WIyWlLk6GJQsqaUBKTNV-1" source="GBPlAGdHlxaaOZqkIV1C-19" target="MAqhaq30l3_6akZG-m3e-0">
          <mxGeometry relative="1" as="geometry" />
        </mxCell>
        <mxCell id="GBPlAGdHlxaaOZqkIV1C-19" value="start Mini Web" style="rounded=1;whiteSpace=wrap;html=1;" parent="WIyWlLk6GJQsqaUBKTNV-1" vertex="1">
          <mxGeometry x="565" y="740" width="200" height="40" as="geometry" />
        </mxCell>
        <mxCell id="GBPlAGdHlxaaOZqkIV1C-21" value="start SOP chrome browser" style="rounded=1;whiteSpace=wrap;html=1;" parent="WIyWlLk6GJQsqaUBKTNV-1" vertex="1">
          <mxGeometry x="565" y="1070" width="200" height="40" as="geometry" />
        </mxCell>
        <mxCell id="GBPlAGdHlxaaOZqkIV1C-25" value="Feature 1" style="rounded=0;whiteSpace=wrap;html=1;" parent="WIyWlLk6GJQsqaUBKTNV-1" vertex="1">
          <mxGeometry x="340" y="1240" width="100" height="40" as="geometry" />
        </mxCell>
        <mxCell id="GBPlAGdHlxaaOZqkIV1C-26" value="&lt;span&gt;Feature 2&lt;/span&gt;" style="rounded=0;whiteSpace=wrap;html=1;" parent="WIyWlLk6GJQsqaUBKTNV-1" vertex="1">
          <mxGeometry x="490" y="1240" width="100" height="40" as="geometry" />
        </mxCell>
        <mxCell id="GBPlAGdHlxaaOZqkIV1C-27" value="&lt;span&gt;Feature 3&lt;/span&gt;" style="rounded=0;whiteSpace=wrap;html=1;" parent="WIyWlLk6GJQsqaUBKTNV-1" vertex="1">
          <mxGeometry x="615" y="1240" width="100" height="40" as="geometry" />
        </mxCell>
        <mxCell id="GBPlAGdHlxaaOZqkIV1C-28" value="&lt;span&gt;Feature 4&lt;/span&gt;" style="rounded=0;whiteSpace=wrap;html=1;" parent="WIyWlLk6GJQsqaUBKTNV-1" vertex="1">
          <mxGeometry x="760" y="1240" width="100" height="40" as="geometry" />
        </mxCell>
        <mxCell id="GBPlAGdHlxaaOZqkIV1C-62" style="edgeStyle=orthogonalEdgeStyle;rounded=0;orthogonalLoop=1;jettySize=auto;html=1;exitX=0.5;exitY=0;exitDx=0;exitDy=0;entryX=0.454;entryY=1.008;entryDx=0;entryDy=0;entryPerimeter=0;" parent="WIyWlLk6GJQsqaUBKTNV-1" source="GBPlAGdHlxaaOZqkIV1C-29" target="GBPlAGdHlxaaOZqkIV1C-54" edge="1">
          <mxGeometry relative="1" as="geometry" />
        </mxCell>
        <mxCell id="GBPlAGdHlxaaOZqkIV1C-29" value="&lt;span&gt;System Upgrade&lt;/span&gt;" style="rounded=0;whiteSpace=wrap;html=1;" parent="WIyWlLk6GJQsqaUBKTNV-1" vertex="1">
          <mxGeometry x="965" y="1240" width="90" height="40" as="geometry" />
        </mxCell>
        <mxCell id="GBPlAGdHlxaaOZqkIV1C-30" value="" style="endArrow=none;dashed=1;html=1;dashPattern=1 3;strokeWidth=2;entryX=1;entryY=0.5;entryDx=0;entryDy=0;exitX=0;exitY=0.5;exitDx=0;exitDy=0;" parent="WIyWlLk6GJQsqaUBKTNV-1" source="GBPlAGdHlxaaOZqkIV1C-29" target="GBPlAGdHlxaaOZqkIV1C-28" edge="1">
          <mxGeometry width="50" height="50" relative="1" as="geometry">
            <mxPoint x="510" y="770" as="sourcePoint" />
            <mxPoint x="560" y="720" as="targetPoint" />
          </mxGeometry>
        </mxCell>
        <mxCell id="GBPlAGdHlxaaOZqkIV1C-34" value="" style="endArrow=classic;html=1;entryX=0.5;entryY=0;entryDx=0;entryDy=0;exitX=0.5;exitY=1;exitDx=0;exitDy=0;" parent="WIyWlLk6GJQsqaUBKTNV-1" source="GBPlAGdHlxaaOZqkIV1C-21" target="GBPlAGdHlxaaOZqkIV1C-25" edge="1">
          <mxGeometry width="50" height="50" relative="1" as="geometry">
            <mxPoint x="660" y="640" as="sourcePoint" />
            <mxPoint x="560" y="620" as="targetPoint" />
          </mxGeometry>
        </mxCell>
        <mxCell id="GBPlAGdHlxaaOZqkIV1C-35" value="" style="endArrow=classic;html=1;exitX=0.5;exitY=1;exitDx=0;exitDy=0;entryX=0.5;entryY=0;entryDx=0;entryDy=0;" parent="WIyWlLk6GJQsqaUBKTNV-1" source="GBPlAGdHlxaaOZqkIV1C-21" target="GBPlAGdHlxaaOZqkIV1C-26" edge="1">
          <mxGeometry width="50" height="50" relative="1" as="geometry">
            <mxPoint x="620" y="650" as="sourcePoint" />
            <mxPoint x="510" y="690" as="targetPoint" />
          </mxGeometry>
        </mxCell>
        <mxCell id="GBPlAGdHlxaaOZqkIV1C-36" value="" style="endArrow=classic;html=1;exitX=0.5;exitY=1;exitDx=0;exitDy=0;entryX=0.5;entryY=0;entryDx=0;entryDy=0;" parent="WIyWlLk6GJQsqaUBKTNV-1" source="GBPlAGdHlxaaOZqkIV1C-21" target="GBPlAGdHlxaaOZqkIV1C-27" edge="1">
          <mxGeometry width="50" height="50" relative="1" as="geometry">
            <mxPoint x="680" y="680" as="sourcePoint" />
            <mxPoint x="650" y="730" as="targetPoint" />
          </mxGeometry>
        </mxCell>
        <mxCell id="GBPlAGdHlxaaOZqkIV1C-37" value="" style="endArrow=classic;html=1;exitX=0.5;exitY=1;exitDx=0;exitDy=0;entryX=0.5;entryY=0;entryDx=0;entryDy=0;" parent="WIyWlLk6GJQsqaUBKTNV-1" source="GBPlAGdHlxaaOZqkIV1C-21" target="GBPlAGdHlxaaOZqkIV1C-28" edge="1">
          <mxGeometry width="50" height="50" relative="1" as="geometry">
            <mxPoint x="670" y="650" as="sourcePoint" />
            <mxPoint x="660" y="740" as="targetPoint" />
          </mxGeometry>
        </mxCell>
        <mxCell id="GBPlAGdHlxaaOZqkIV1C-38" value="" style="endArrow=classic;html=1;exitX=0.5;exitY=1;exitDx=0;exitDy=0;entryX=0.5;entryY=0;entryDx=0;entryDy=0;" parent="WIyWlLk6GJQsqaUBKTNV-1" source="GBPlAGdHlxaaOZqkIV1C-21" target="GBPlAGdHlxaaOZqkIV1C-29" edge="1">
          <mxGeometry width="50" height="50" relative="1" as="geometry">
            <mxPoint x="680" y="660" as="sourcePoint" />
            <mxPoint x="670" y="750" as="targetPoint" />
          </mxGeometry>
        </mxCell>
        <mxCell id="GBPlAGdHlxaaOZqkIV1C-52" style="edgeStyle=orthogonalEdgeStyle;rounded=0;orthogonalLoop=1;jettySize=auto;html=1;exitX=0.5;exitY=1;exitDx=0;exitDy=0;" parent="WIyWlLk6GJQsqaUBKTNV-1" source="GBPlAGdHlxaaOZqkIV1C-41" target="GBPlAGdHlxaaOZqkIV1C-46" edge="1">
          <mxGeometry relative="1" as="geometry">
            <mxPoint x="660" y="600" as="targetPoint" />
          </mxGeometry>
        </mxCell>
        <mxCell id="GBPlAGdHlxaaOZqkIV1C-41" value="enter user system" style="rounded=0;whiteSpace=wrap;html=1;" parent="WIyWlLk6GJQsqaUBKTNV-1" vertex="1">
          <mxGeometry x="560" y="510" width="200" height="60" as="geometry" />
        </mxCell>
        <mxCell id="GBPlAGdHlxaaOZqkIV1C-46" value="System need upgrade?" style="rhombus;whiteSpace=wrap;html=1;shadow=0;fontFamily=Helvetica;fontSize=12;align=center;strokeWidth=1;spacing=6;spacingTop=-4;" parent="WIyWlLk6GJQsqaUBKTNV-1" vertex="1">
          <mxGeometry x="610" y="615" width="100" height="70" as="geometry" />
        </mxCell>
        <mxCell id="GBPlAGdHlxaaOZqkIV1C-49" value="No" style="rounded=0;html=1;jettySize=auto;orthogonalLoop=1;fontSize=11;endArrow=block;endFill=0;endSize=8;strokeWidth=1;shadow=0;labelBackgroundColor=none;edgeStyle=orthogonalEdgeStyle;exitX=0.5;exitY=1;exitDx=0;exitDy=0;" parent="WIyWlLk6GJQsqaUBKTNV-1" edge="1" source="GBPlAGdHlxaaOZqkIV1C-46">
          <mxGeometry x="0.3333" y="20" relative="1" as="geometry">
            <mxPoint as="offset" />
            <mxPoint x="659.5" y="740" as="sourcePoint" />
            <mxPoint x="660" y="743" as="targetPoint" />
          </mxGeometry>
        </mxCell>
        <mxCell id="GBPlAGdHlxaaOZqkIV1C-57" style="edgeStyle=orthogonalEdgeStyle;rounded=0;orthogonalLoop=1;jettySize=auto;html=1;entryX=0;entryY=0.5;entryDx=0;entryDy=0;" parent="WIyWlLk6GJQsqaUBKTNV-1" source="GBPlAGdHlxaaOZqkIV1C-54" target="GBPlAGdHlxaaOZqkIV1C-55" edge="1">
          <mxGeometry relative="1" as="geometry" />
        </mxCell>
        <mxCell id="GBPlAGdHlxaaOZqkIV1C-54" value="execute shell script" style="rounded=1;whiteSpace=wrap;html=1;" parent="WIyWlLk6GJQsqaUBKTNV-1" vertex="1">
          <mxGeometry x="940" y="645" width="155" height="40" as="geometry" />
        </mxCell>
        <mxCell id="GBPlAGdHlxaaOZqkIV1C-60" style="edgeStyle=orthogonalEdgeStyle;rounded=0;orthogonalLoop=1;jettySize=auto;html=1;exitX=0.5;exitY=0;exitDx=0;exitDy=0;entryX=0.5;entryY=1;entryDx=0;entryDy=0;" parent="WIyWlLk6GJQsqaUBKTNV-1" source="GBPlAGdHlxaaOZqkIV1C-55" target="GBPlAGdHlxaaOZqkIV1C-58" edge="1">
          <mxGeometry relative="1" as="geometry" />
        </mxCell>
        <mxCell id="GBPlAGdHlxaaOZqkIV1C-55" value="change env variable" style="rounded=1;whiteSpace=wrap;html=1;" parent="WIyWlLk6GJQsqaUBKTNV-1" vertex="1">
          <mxGeometry x="1170" y="645" width="170" height="40" as="geometry" />
        </mxCell>
        <mxCell id="gTSIh67lG50MC-aRm6O5-9" style="edgeStyle=orthogonalEdgeStyle;rounded=0;orthogonalLoop=1;jettySize=auto;html=1;entryX=0.5;entryY=1;entryDx=0;entryDy=0;" parent="WIyWlLk6GJQsqaUBKTNV-1" source="GBPlAGdHlxaaOZqkIV1C-58" target="GBPlAGdHlxaaOZqkIV1C-64" edge="1">
          <mxGeometry relative="1" as="geometry" />
        </mxCell>
        <mxCell id="GBPlAGdHlxaaOZqkIV1C-58" value="reboot" style="rounded=1;whiteSpace=wrap;html=1;" parent="WIyWlLk6GJQsqaUBKTNV-1" vertex="1">
          <mxGeometry x="1170" y="545" width="170" height="40" as="geometry" />
        </mxCell>
        <mxCell id="GBPlAGdHlxaaOZqkIV1C-69" style="edgeStyle=orthogonalEdgeStyle;rounded=0;orthogonalLoop=1;jettySize=auto;html=1;exitX=0.5;exitY=0;exitDx=0;exitDy=0;entryX=0.5;entryY=1;entryDx=0;entryDy=0;" parent="WIyWlLk6GJQsqaUBKTNV-1" source="GBPlAGdHlxaaOZqkIV1C-64" target="GBPlAGdHlxaaOZqkIV1C-68" edge="1">
          <mxGeometry relative="1" as="geometry" />
        </mxCell>
        <mxCell id="GBPlAGdHlxaaOZqkIV1C-64" value="enter upgrade system" style="rounded=1;whiteSpace=wrap;html=1;" parent="WIyWlLk6GJQsqaUBKTNV-1" vertex="1">
          <mxGeometry x="1170" y="440" width="170" height="40" as="geometry" />
        </mxCell>
        <mxCell id="gTSIh67lG50MC-aRm6O5-5" style="edgeStyle=orthogonalEdgeStyle;rounded=0;orthogonalLoop=1;jettySize=auto;html=1;entryX=0.5;entryY=1;entryDx=0;entryDy=0;" parent="WIyWlLk6GJQsqaUBKTNV-1" source="GBPlAGdHlxaaOZqkIV1C-68" target="gTSIh67lG50MC-aRm6O5-0" edge="1">
          <mxGeometry relative="1" as="geometry" />
        </mxCell>
        <mxCell id="GBPlAGdHlxaaOZqkIV1C-68" value="find system upgrade file" style="rounded=1;whiteSpace=wrap;html=1;" parent="WIyWlLk6GJQsqaUBKTNV-1" vertex="1">
          <mxGeometry x="1170" y="350" width="170" height="50" as="geometry" />
        </mxCell>
        <mxCell id="gTSIh67lG50MC-aRm6O5-0" value="change env variable" style="rounded=1;whiteSpace=wrap;html=1;" parent="WIyWlLk6GJQsqaUBKTNV-1" vertex="1">
          <mxGeometry x="1170" y="270" width="170" height="40" as="geometry" />
        </mxCell>
        <mxCell id="gTSIh67lG50MC-aRm6O5-3" value="" style="endArrow=classic;startArrow=classic;html=1;entryX=0;entryY=0.5;entryDx=0;entryDy=0;" parent="WIyWlLk6GJQsqaUBKTNV-1" source="GBPlAGdHlxaaOZqkIV1C-14" target="GBPlAGdHlxaaOZqkIV1C-10" edge="1">
          <mxGeometry width="50" height="50" relative="1" as="geometry">
            <mxPoint x="220" y="630" as="sourcePoint" />
            <mxPoint x="270" y="580" as="targetPoint" />
          </mxGeometry>
        </mxCell>
        <mxCell id="gTSIh67lG50MC-aRm6O5-6" value="reboot" style="rounded=1;whiteSpace=wrap;html=1;" parent="WIyWlLk6GJQsqaUBKTNV-1" vertex="1">
          <mxGeometry x="880" y="110" width="200" height="40" as="geometry" />
        </mxCell>
        <mxCell id="gTSIh67lG50MC-aRm6O5-8" value="" style="endArrow=classic;html=1;exitX=0;exitY=0.5;exitDx=0;exitDy=0;entryX=0.5;entryY=0;entryDx=0;entryDy=0;" parent="WIyWlLk6GJQsqaUBKTNV-1" source="gTSIh67lG50MC-aRm6O5-6" target="GBPlAGdHlxaaOZqkIV1C-1" edge="1">
          <mxGeometry width="50" height="50" relative="1" as="geometry">
            <mxPoint x="920" y="140" as="sourcePoint" />
            <mxPoint x="970" y="250" as="targetPoint" />
          </mxGeometry>
        </mxCell>
        <mxCell id="gTSIh67lG50MC-aRm6O5-11" value="" style="endArrow=classic;html=1;exitX=0.5;exitY=0;exitDx=0;exitDy=0;entryX=1;entryY=0.5;entryDx=0;entryDy=0;" parent="WIyWlLk6GJQsqaUBKTNV-1" source="gTSIh67lG50MC-aRm6O5-0" target="gTSIh67lG50MC-aRm6O5-6" edge="1">
          <mxGeometry width="50" height="50" relative="1" as="geometry">
            <mxPoint x="920" y="300" as="sourcePoint" />
            <mxPoint x="930" y="130" as="targetPoint" />
          </mxGeometry>
        </mxCell>
        <mxCell id="MAqhaq30l3_6akZG-m3e-6" style="edgeStyle=orthogonalEdgeStyle;rounded=0;orthogonalLoop=1;jettySize=auto;html=1;entryX=0.5;entryY=0;entryDx=0;entryDy=0;" edge="1" parent="WIyWlLk6GJQsqaUBKTNV-1" source="MAqhaq30l3_6akZG-m3e-0" target="MAqhaq30l3_6akZG-m3e-1">
          <mxGeometry relative="1" as="geometry" />
        </mxCell>
        <mxCell id="MAqhaq30l3_6akZG-m3e-0" value="Show Boot Screen (~3 sec)" style="rounded=1;whiteSpace=wrap;html=1;" vertex="1" parent="WIyWlLk6GJQsqaUBKTNV-1">
          <mxGeometry x="565" y="820" width="200" height="30" as="geometry" />
        </mxCell>
        <mxCell id="MAqhaq30l3_6akZG-m3e-1" value="Button for settings screen pressed?" style="rhombus;whiteSpace=wrap;html=1;shadow=0;fontFamily=Helvetica;fontSize=12;align=center;strokeWidth=1;spacing=6;spacingTop=-4;" vertex="1" parent="WIyWlLk6GJQsqaUBKTNV-1">
          <mxGeometry x="615" y="900" width="100" height="70" as="geometry" />
        </mxCell>
        <mxCell id="MAqhaq30l3_6akZG-m3e-7" value="Yes" style="rounded=0;html=1;jettySize=auto;orthogonalLoop=1;fontSize=11;endArrow=block;endFill=0;endSize=8;strokeWidth=1;shadow=0;labelBackgroundColor=none;edgeStyle=orthogonalEdgeStyle;exitX=0.5;exitY=1;exitDx=0;exitDy=0;" edge="1" parent="WIyWlLk6GJQsqaUBKTNV-1" source="MAqhaq30l3_6akZG-m3e-1">
          <mxGeometry x="0.3333" y="20" relative="1" as="geometry">
            <mxPoint as="offset" />
            <mxPoint x="664.5" y="1042" as="sourcePoint" />
            <mxPoint x="664.5" y="1100" as="targetPoint" />
          </mxGeometry>
        </mxCell>
        <mxCell id="MAqhaq30l3_6akZG-m3e-9" value="Yes" style="rounded=0;html=1;jettySize=auto;orthogonalLoop=1;fontSize=11;endArrow=block;endFill=0;endSize=8;strokeWidth=1;shadow=0;labelBackgroundColor=none;edgeStyle=orthogonalEdgeStyle;exitX=1;exitY=0.5;exitDx=0;exitDy=0;" edge="1" parent="WIyWlLk6GJQsqaUBKTNV-1" source="GBPlAGdHlxaaOZqkIV1C-46">
          <mxGeometry x="0.3333" y="20" relative="1" as="geometry">
            <mxPoint as="offset" />
            <mxPoint x="670" y="695" as="sourcePoint" />
            <mxPoint x="940" y="650" as="targetPoint" />
          </mxGeometry>
        </mxCell>
        <mxCell id="MAqhaq30l3_6akZG-m3e-10" value="Yes" style="rounded=0;html=1;jettySize=auto;orthogonalLoop=1;fontSize=11;endArrow=block;endFill=0;endSize=8;strokeWidth=1;shadow=0;labelBackgroundColor=none;edgeStyle=orthogonalEdgeStyle;exitX=0;exitY=0.5;exitDx=0;exitDy=0;entryX=1;entryY=0.5;entryDx=0;entryDy=0;" edge="1" parent="WIyWlLk6GJQsqaUBKTNV-1" source="MAqhaq30l3_6akZG-m3e-1" target="MAqhaq30l3_6akZG-m3e-11">
          <mxGeometry x="0.3333" y="20" relative="1" as="geometry">
            <mxPoint as="offset" />
            <mxPoint x="290" y="760" as="sourcePoint" />
            <mxPoint x="370" y="935" as="targetPoint" />
          </mxGeometry>
        </mxCell>
        <mxCell id="MAqhaq30l3_6akZG-m3e-15" style="edgeStyle=orthogonalEdgeStyle;rounded=0;orthogonalLoop=1;jettySize=auto;html=1;exitX=0.5;exitY=1;exitDx=0;exitDy=0;entryX=0.5;entryY=0;entryDx=0;entryDy=0;" edge="1" parent="WIyWlLk6GJQsqaUBKTNV-1" source="MAqhaq30l3_6akZG-m3e-11" target="MAqhaq30l3_6akZG-m3e-14">
          <mxGeometry relative="1" as="geometry" />
        </mxCell>
        <mxCell id="MAqhaq30l3_6akZG-m3e-11" value="Establish the connection to the target drive" style="rounded=1;whiteSpace=wrap;html=1;" vertex="1" parent="WIyWlLk6GJQsqaUBKTNV-1">
          <mxGeometry x="110" y="915" width="200" height="40" as="geometry" />
        </mxCell>
        <mxCell id="MAqhaq30l3_6akZG-m3e-14" value="start target drive web application" style="rounded=1;whiteSpace=wrap;html=1;" vertex="1" parent="WIyWlLk6GJQsqaUBKTNV-1">
          <mxGeometry x="110" y="1070" width="200" height="40" as="geometry" />
        </mxCell>
      </root>
    </mxGraphModel>
  </diagram>
</mxfile>
